<svg width="43" height="45" viewBox="0 0 43 45" fill="none" xmlns="http://www.w3.org/2000/svg">
<g filter="url(#filter0_di_1_3444)">
<path d="M27.9953 11.3422C26.8641 8.69374 24.853 6.51711 22.302 5.18033C19.7511 3.84356 16.8168 3.42865 13.9952 4.00575C11.1736 4.58285 8.63789 6.11656 6.81668 8.34758C4.99546 10.5786 4.0005 13.3701 4 16.2501V26.2501C4 26.9131 4.26339 27.549 4.73223 28.0178C5.20107 28.4867 5.83696 28.7501 6.5 28.7501H15.0422C16.0176 30.9776 17.6205 32.873 19.6552 34.2049C21.6898 35.5367 24.0682 36.2473 26.5 36.2501H36.5C37.163 36.2501 37.7989 35.9867 38.2678 35.5178C38.7366 35.049 39 34.4131 39 33.7501V23.7501C38.9994 20.6942 37.8794 17.7445 35.8518 15.4583C33.8241 13.172 31.0292 11.7078 27.9953 11.3422ZM36.5 33.7501H26.5C24.7317 33.748 22.9955 33.2782 21.4675 32.3883C19.9395 31.4983 18.6742 30.2199 17.8 28.6829C19.5121 28.5052 21.1689 27.9756 22.6666 27.1272C24.1642 26.2788 25.4703 25.13 26.5029 23.7529C27.5356 22.3758 28.2724 20.8001 28.6671 19.1248C29.0619 17.4494 29.106 15.7105 28.7969 14.0172C30.9895 14.5347 32.9431 15.7774 34.3412 17.5439C35.7394 19.3104 36.5 21.4972 36.5 23.7501V33.7501Z" fill="url(#paint0_radial_1_3444)" fill-opacity="0.5"/>
</g>
<defs>
<filter id="filter0_di_1_3444" x="-2.5" y="-1" width="48" height="49" filterUnits="userSpaceOnUse" color-interpolation-filters="sRGB">
<feFlood flood-opacity="0" result="BackgroundImageFix"/>
<feColorMatrix in="SourceAlpha" type="matrix" values="0 0 0 0 0 0 0 0 0 0 0 0 0 0 0 0 0 0 127 0" result="hardAlpha"/>
<feOffset dy="4"/>
<feGaussianBlur stdDeviation="2"/>
<feComposite in2="hardAlpha" operator="out"/>
<feColorMatrix type="matrix" values="0 0 0 0 0 0 0 0 0 0 0 0 0 0 0 0 0 0 0.25 0"/>
<feBlend mode="normal" in2="BackgroundImageFix" result="effect1_dropShadow_1_3444"/>
<feBlend mode="normal" in="SourceGraphic" in2="effect1_dropShadow_1_3444" result="shape"/>
<feColorMatrix in="SourceAlpha" type="matrix" values="0 0 0 0 0 0 0 0 0 0 0 0 0 0 0 0 0 0 127 0" result="hardAlpha"/>
<feOffset dy="-1"/>
<feGaussianBlur stdDeviation="2"/>
<feComposite in2="hardAlpha" operator="arithmetic" k2="-1" k3="1"/>
<feColorMatrix type="matrix" values="0 0 0 0 0 0 0 0 0 0 0 0 0 0 0 0 0 0 0.2 0"/>
<feBlend mode="normal" in2="shape" result="effect2_innerShadow_1_3444"/>
</filter>
<radialGradient id="paint0_radial_1_3444" cx="0" cy="0" r="1" gradientUnits="userSpaceOnUse" gradientTransform="translate(21.5 20.0011) rotate(90) scale(16.2489 17.5)">
<stop offset="0.5" stop-color="#666666" stop-opacity="0.5"/>
<stop offset="1"/>
</radialGradient>
</defs>
</svg>
