<svg width="39" height="39" viewBox="0 0 39 39" fill="none" xmlns="http://www.w3.org/2000/svg">
<path fill-rule="evenodd" clip-rule="evenodd" d="M17.875 3.25C16.5821 3.25 15.3421 3.76361 14.4279 4.67785C13.5136 5.59209 13 6.83207 13 8.125V30.875C13 32.1679 13.5136 33.4079 14.4279 34.3221C15.3421 35.2364 16.5821 35.75 17.875 35.75H27.625C28.9179 35.75 30.1579 35.2364 31.0721 34.3221C31.9864 33.4079 32.5 32.1679 32.5 30.875V8.125C32.5 6.83207 31.9864 5.59209 31.0721 4.67785C30.1579 3.76361 28.9179 3.25 27.625 3.25H17.875ZM19.9761 13.4761C20.2809 13.1715 20.6941 13.0003 21.125 13.0003C21.5559 13.0003 21.9691 13.1715 22.2739 13.4761L27.1489 18.3511C27.4535 18.6559 27.6247 19.0691 27.6247 19.5C27.6247 19.9309 27.4535 20.3441 27.1489 20.6489L22.2739 25.5239C21.9674 25.8199 21.5569 25.9837 21.1308 25.98C20.7048 25.9763 20.2972 25.8054 19.9959 25.5041C19.6946 25.2028 19.5237 24.7952 19.52 24.3692C19.5163 23.9431 19.6801 23.5326 19.9761 23.2261L22.0773 21.125H8.125C7.69402 21.125 7.2807 20.9538 6.97595 20.649C6.67121 20.3443 6.5 19.931 6.5 19.5C6.5 19.069 6.67121 18.6557 6.97595 18.351C7.2807 18.0462 7.69402 17.875 8.125 17.875H22.0773L19.9761 15.7739C19.6715 15.4691 19.5003 15.0559 19.5003 14.625C19.5003 14.1941 19.6715 13.7809 19.9761 13.4761Z" fill="url(#paint0_radial_1_3449)" fill-opacity="0.5"/>
<defs>
<radialGradient id="paint0_radial_1_3449" cx="0" cy="0" r="1" gradientUnits="userSpaceOnUse" gradientTransform="translate(19.5 19.5) rotate(90) scale(16.25 13)">
<stop offset="0.495" stop-color="#666666" stop-opacity="0.5"/>
<stop offset="1"/>
</radialGradient>
</defs>
</svg>
