<svg width="18" height="18" viewBox="0 0 18 18" fill="none" xmlns="http://www.w3.org/2000/svg">
<path fill-rule="evenodd" clip-rule="evenodd" d="M9.44463 17.4435L9.43638 17.445L9.38313 17.4712L9.36813 17.4742L9.35763 17.4712L9.30438 17.445C9.29638 17.4425 9.29038 17.4437 9.28638 17.4487L9.28338 17.4562L9.27063 17.7772L9.27438 17.7922L9.28188 17.802L9.35988 17.8575L9.37113 17.8605L9.38013 17.8575L9.45813 17.802L9.46713 17.79L9.47013 17.7772L9.45738 17.457C9.45538 17.449 9.45113 17.4445 9.44463 17.4435ZM9.64338 17.3587L9.63363 17.3602L9.49488 17.43L9.48738 17.4375L9.48513 17.4457L9.49863 17.7682L9.50238 17.7772L9.50838 17.7825L9.65913 17.8522C9.66863 17.8547 9.67588 17.8527 9.68088 17.8462L9.68388 17.8357L9.65838 17.3752C9.65588 17.3662 9.65088 17.3607 9.64338 17.3587ZM9.10713 17.3602C9.10383 17.3582 9.09988 17.3576 9.09611 17.3584C9.09233 17.3592 9.08903 17.3615 9.08688 17.3647L9.08238 17.3752L9.05688 17.8357C9.05738 17.8447 9.06163 17.8507 9.06963 17.8537L9.08088 17.8522L9.23163 17.7825L9.23913 17.7765L9.24213 17.7682L9.25488 17.4457L9.25263 17.4367L9.24513 17.4292L9.10713 17.3602Z" fill="black" fill-opacity="0.4"/>
<path fill-rule="evenodd" clip-rule="evenodd" d="M7.87495 1.5C6.85839 1.50009 5.85659 1.74327 4.95314 2.20927C4.04968 2.67527 3.27077 3.35056 2.68137 4.17882C2.09198 5.00707 1.7092 5.96426 1.56498 6.97053C1.42075 7.97681 1.51926 9.00298 1.85228 9.96344C2.1853 10.9239 2.74318 11.7908 3.47937 12.4918C4.21557 13.1928 5.10872 13.7076 6.08433 13.9932C7.05994 14.2788 8.0897 14.327 9.08771 14.1337C10.0857 13.9404 11.023 13.5112 11.8214 12.882L14.5604 15.621C14.7019 15.7576 14.8913 15.8332 15.088 15.8315C15.2846 15.8298 15.4728 15.7509 15.6118 15.6119C15.7509 15.4728 15.8297 15.2847 15.8315 15.0881C15.8332 14.8914 15.7576 14.702 15.6209 14.5605L12.8819 11.8215C13.6229 10.8815 14.0843 9.7518 14.2133 8.56179C14.3422 7.37179 14.1335 6.16952 13.6111 5.09257C13.0887 4.01562 12.2736 3.10752 11.2592 2.47217C10.2447 1.83683 9.07192 1.49992 7.87495 1.5ZM2.99995 7.875C2.99995 6.58207 3.51356 5.34209 4.4278 4.42785C5.34204 3.51361 6.58202 3 7.87495 3C9.16788 3 10.4079 3.51361 11.3221 4.42785C12.2363 5.34209 12.7499 6.58207 12.7499 7.875C12.7499 9.16793 12.2363 10.4079 11.3221 11.3221C10.4079 12.2364 9.16788 12.75 7.87495 12.75C6.58202 12.75 5.34204 12.2364 4.4278 11.3221C3.51356 10.4079 2.99995 9.16793 2.99995 7.875Z" fill="black" fill-opacity="0.4"/>
</svg>
