<svg width="16" height="16" viewBox="0 0 16 16" fill="none" xmlns="http://www.w3.org/2000/svg">
<g filter="url(#filter0_d_25_516)">
<path d="M8 8.00004C9.84115 8.00004 11.3333 6.50785 11.3333 4.66671C11.3333 2.82556 9.84115 1.33337 8 1.33337C6.15885 1.33337 4.66667 2.82556 4.66667 4.66671C4.66667 6.50785 6.15885 8.00004 8 8.00004ZM10.3333 8.83337H9.89844C9.32031 9.099 8.67708 9.25004 8 9.25004C7.32292 9.25004 6.68229 9.099 6.10156 8.83337H5.66667C3.73438 8.83337 2.16667 10.4011 2.16667 12.3334V13.4167C2.16667 14.1068 2.72656 14.6667 3.41667 14.6667H12.5833C13.2734 14.6667 13.8333 14.1068 13.8333 13.4167V12.3334C13.8333 10.4011 12.2656 8.83337 10.3333 8.83337Z" fill="url(#paint0_linear_25_516)"/>
</g>
<defs>
<filter id="filter0_d_25_516" x="0" y="-1" width="16" height="17" filterUnits="userSpaceOnUse" color-interpolation-filters="sRGB">
<feFlood flood-opacity="0" result="BackgroundImageFix"/>
<feColorMatrix in="SourceAlpha" type="matrix" values="0 0 0 0 0 0 0 0 0 0 0 0 0 0 0 0 0 0 127 0" result="hardAlpha"/>
<feOffset dy="-1"/>
<feComposite in2="hardAlpha" operator="out"/>
<feColorMatrix type="matrix" values="0 0 0 0 0 0 0 0 0 0 0 0 0 0 0 0 0 0 0.5 0"/>
<feBlend mode="normal" in2="BackgroundImageFix" result="effect1_dropShadow_25_516"/>
<feBlend mode="normal" in="SourceGraphic" in2="effect1_dropShadow_25_516" result="shape"/>
</filter>
<linearGradient id="paint0_linear_25_516" x1="4.5" y1="1.39687" x2="7.73265" y2="14.0193" gradientUnits="userSpaceOnUse">
<stop stop-color="white" stop-opacity="0.85"/>
<stop offset="0.447917" stop-color="#CCCCCC" stop-opacity="0.75"/>
<stop offset="1" stop-color="#E6E6E6" stop-opacity="0.8"/>
</linearGradient>
</defs>
</svg>
