<svg width="18" height="18" viewBox="0 0 18 18" fill="none" xmlns="http://www.w3.org/2000/svg">
<path fill-rule="evenodd" clip-rule="evenodd" d="M9.44476 17.4435L9.43651 17.445L9.38326 17.4712L9.36826 17.4742L9.35776 17.4712L9.30451 17.445C9.29651 17.4425 9.29051 17.4437 9.28651 17.4487L9.28351 17.4562L9.27076 17.7772L9.27451 17.7922L9.28201 17.802L9.36001 17.8575L9.37126 17.8605L9.38026 17.8575L9.45826 17.802L9.46726 17.79L9.47026 17.7772L9.45751 17.457C9.45551 17.449 9.45126 17.4445 9.44476 17.4435ZM9.64351 17.3587L9.63376 17.3602L9.49501 17.43L9.48751 17.4375L9.48526 17.4457L9.49876 17.7682L9.50251 17.7772L9.50851 17.7825L9.65926 17.8522C9.66876 17.8547 9.67601 17.8527 9.68101 17.8462L9.68401 17.8357L9.65851 17.3752C9.65601 17.3662 9.65101 17.3607 9.64351 17.3587ZM9.10726 17.3602C9.10395 17.3582 9.1 17.3576 9.09623 17.3584C9.09246 17.3592 9.08915 17.3615 9.08701 17.3647L9.08251 17.3752L9.05701 17.8357C9.05751 17.8447 9.06176 17.8507 9.06976 17.8537L9.08101 17.8522L9.23176 17.7825L9.23926 17.7765L9.24226 17.7682L9.25501 17.4457L9.25276 17.4367L9.24526 17.4292L9.10726 17.3602Z" fill="black" fill-opacity="0.4"/>
<path fill-rule="evenodd" clip-rule="evenodd" d="M7.875 1.5C6.85844 1.50009 5.85665 1.74327 4.95319 2.20927C4.04974 2.67527 3.27082 3.35056 2.68143 4.17882C2.09203 5.00707 1.70926 5.96426 1.56503 6.97053C1.4208 7.97681 1.51931 9.00298 1.85233 9.96344C2.18535 10.9239 2.74323 11.7908 3.47943 12.4918C4.21562 13.1928 5.10878 13.7076 6.08438 13.9932C7.05999 14.2788 8.08976 14.327 9.08776 14.1337C10.0858 13.9404 11.0231 13.5112 11.8215 12.882L14.5605 15.621C14.702 15.7576 14.8914 15.8332 15.0881 15.8315C15.2847 15.8298 15.4728 15.7509 15.6119 15.6119C15.7509 15.4728 15.8298 15.2847 15.8315 15.0881C15.8332 14.8914 15.7576 14.702 15.621 14.5605L12.882 11.8215C13.623 10.8815 14.0844 9.7518 14.2133 8.56179C14.3423 7.37179 14.1336 6.16952 13.6112 5.09257C13.0887 4.01562 12.2737 3.10752 11.2592 2.47217C10.2448 1.83683 9.07197 1.49992 7.875 1.5ZM3 7.875C3 6.58207 3.51361 5.34209 4.42785 4.42785C5.34209 3.51361 6.58207 3 7.875 3C9.16793 3 10.4079 3.51361 11.3221 4.42785C12.2364 5.34209 12.75 6.58207 12.75 7.875C12.75 9.16793 12.2364 10.4079 11.3221 11.3221C10.4079 12.2364 9.16793 12.75 7.875 12.75C6.58207 12.75 5.34209 12.2364 4.42785 11.3221C3.51361 10.4079 3 9.16793 3 7.875Z" fill="black" fill-opacity="0.4"/>
</svg>
