<svg width="38" height="38" viewBox="0 0 38 38" fill="none" xmlns="http://www.w3.org/2000/svg">
<g filter="url(#filter0_di_1_3431)">
<path d="M5.15533 5C4.51874 5 4 5.52068 4 6.15964V24.7138C4 25.3528 4.51874 25.8735 5.15533 25.8735H23.6407C24.2772 25.8735 24.796 25.3528 24.796 24.7138V6.15964C24.796 5.52068 24.2772 5 23.6407 5H5.15533ZM6.31067 7.31927H22.4853V21.2349H6.31067V7.31927ZM25.9513 8.36991V10.7251L28.0459 11.0881L25.9513 23.2643V24.7138C25.9513 25.9941 24.915 27.0331 23.6407 27.0331H11.4011L26.0599 29.5704C26.3616 29.6229 26.6716 29.5531 26.9221 29.3764C27.1725 29.1996 27.3427 28.9303 27.3955 28.6276L30.501 10.3274C30.5273 10.1774 30.5238 10.0236 30.4907 9.87496C30.4577 9.7263 30.3958 9.58564 30.3086 9.46102C30.2213 9.3364 30.1105 9.23027 29.9823 9.1487C29.8542 9.06714 29.7112 9.01174 29.5617 8.98567L25.9513 8.36991ZM14.398 9.56549C13.0682 9.56549 11.9429 10.4839 11.9429 12.2118C11.9429 13.3413 12.4443 14.4754 13.1341 15.1828C13.4044 15.8902 12.9446 16.1592 12.8452 16.1975C11.4519 16.7031 9.81248 17.6412 9.81248 18.5527V20.0393H18.9835V18.5538C18.9835 17.6145 17.3406 16.6822 15.878 16.1975C15.811 16.1754 15.3962 15.9887 15.6619 15.1828C16.3494 14.4754 16.8889 13.3355 16.8889 12.2118C16.8889 10.4839 15.7278 9.56549 14.398 9.56549ZM31.0417 14.1693L30.6454 16.4514L31.475 16.6323L28.2978 30.1862L27.8287 30.0772C27.5711 30.332 27.2562 30.521 26.9105 30.6281C26.5649 30.7353 26.1987 30.7575 25.8427 30.6929L9.84945 27.9388L9.52249 29.3176C9.45442 29.62 9.50698 29.9371 9.66892 30.2011C9.83087 30.4651 10.0893 30.6549 10.389 30.73L28.3694 34.9708C28.6707 35.0392 28.9866 34.9864 29.2496 34.8238C29.5126 34.6613 29.7018 34.4019 29.7766 34.1011L33.967 16.0513C34.1137 15.4298 33.7591 14.7862 33.1375 14.6377L31.0429 14.1669L31.0417 14.1693Z" fill="url(#paint0_linear_1_3431)"/>
<path d="M5.15533 5C4.51874 5 4 5.52068 4 6.15964V24.7138C4 25.3528 4.51874 25.8735 5.15533 25.8735H23.6407C24.2772 25.8735 24.796 25.3528 24.796 24.7138V6.15964C24.796 5.52068 24.2772 5 23.6407 5H5.15533ZM6.31067 7.31927H22.4853V21.2349H6.31067V7.31927ZM25.9513 8.36991V10.7251L28.0459 11.0881L25.9513 23.2643V24.7138C25.9513 25.9941 24.915 27.0331 23.6407 27.0331H11.4011L26.0599 29.5704C26.3616 29.6229 26.6716 29.5531 26.9221 29.3764C27.1725 29.1996 27.3427 28.9303 27.3955 28.6276L30.501 10.3274C30.5273 10.1774 30.5238 10.0236 30.4907 9.87496C30.4577 9.7263 30.3958 9.58564 30.3086 9.46102C30.2213 9.3364 30.1105 9.23027 29.9823 9.1487C29.8542 9.06714 29.7112 9.01174 29.5617 8.98567L25.9513 8.36991ZM14.398 9.56549C13.0682 9.56549 11.9429 10.4839 11.9429 12.2118C11.9429 13.3413 12.4443 14.4754 13.1341 15.1828C13.4044 15.8902 12.9446 16.1592 12.8452 16.1975C11.4519 16.7031 9.81248 17.6412 9.81248 18.5527V20.0393H18.9835V18.5538C18.9835 17.6145 17.3406 16.6822 15.878 16.1975C15.811 16.1754 15.3962 15.9887 15.6619 15.1828C16.3494 14.4754 16.8889 13.3355 16.8889 12.2118C16.8889 10.4839 15.7278 9.56549 14.398 9.56549ZM31.0417 14.1693L30.6454 16.4514L31.475 16.6323L28.2978 30.1862L27.8287 30.0772C27.5711 30.332 27.2562 30.521 26.9105 30.6281C26.5649 30.7353 26.1987 30.7575 25.8427 30.6929L9.84945 27.9388L9.52249 29.3176C9.45442 29.62 9.50698 29.9371 9.66892 30.2011C9.83087 30.4651 10.0893 30.6549 10.389 30.73L28.3694 34.9708C28.6707 35.0392 28.9866 34.9864 29.2496 34.8238C29.5126 34.6613 29.7018 34.4019 29.7766 34.1011L33.967 16.0513C34.1137 15.4298 33.7591 14.7862 33.1375 14.6377L31.0429 14.1669L31.0417 14.1693Z" fill="url(#paint1_radial_1_3431)"/>
</g>
<defs>
<filter id="filter0_di_1_3431" x="0" y="0" width="38" height="39" filterUnits="userSpaceOnUse" color-interpolation-filters="sRGB">
<feFlood flood-opacity="0" result="BackgroundImageFix"/>
<feColorMatrix in="SourceAlpha" type="matrix" values="0 0 0 0 0 0 0 0 0 0 0 0 0 0 0 0 0 0 127 0" result="hardAlpha"/>
<feOffset dy="-1"/>
<feGaussianBlur stdDeviation="2"/>
<feComposite in2="hardAlpha" operator="out"/>
<feColorMatrix type="matrix" values="0 0 0 0 0 0 0 0 0 0 0 0 0 0 0 0 0 0 0.25 0"/>
<feBlend mode="normal" in2="BackgroundImageFix" result="effect1_dropShadow_1_3431"/>
<feBlend mode="normal" in="SourceGraphic" in2="effect1_dropShadow_1_3431" result="shape"/>
<feColorMatrix in="SourceAlpha" type="matrix" values="0 0 0 0 0 0 0 0 0 0 0 0 0 0 0 0 0 0 127 0" result="hardAlpha"/>
<feOffset dy="4"/>
<feGaussianBlur stdDeviation="2"/>
<feComposite in2="hardAlpha" operator="arithmetic" k2="-1" k3="1"/>
<feColorMatrix type="matrix" values="0 0 0 0 0 0 0 0 0 0 0 0 0 0 0 0 0 0 0.25 0"/>
<feBlend mode="normal" in2="shape" result="effect2_innerShadow_1_3431"/>
</filter>
<linearGradient id="paint0_linear_1_3431" x1="19" y1="5" x2="18.8662" y2="34.9998" gradientUnits="userSpaceOnUse">
<stop stop-color="white"/>
<stop offset="1" stop-color="#DADEE8"/>
</linearGradient>
<radialGradient id="paint1_radial_1_3431" cx="0" cy="0" r="1" gradientUnits="userSpaceOnUse" gradientTransform="translate(19 20) rotate(90) scale(15)">
<stop offset="0.5" stop-color="#666666" stop-opacity="0.5"/>
<stop offset="1" stop-opacity="0.5"/>
</radialGradient>
</defs>
</svg>
