<svg width="16" height="16" viewBox="0 0 16 16" fill="none" xmlns="http://www.w3.org/2000/svg">
<g filter="url(#filter0_d_25_542)">
<path d="M13.5828 1.37229L5.25026 3.83297C5.08111 3.8861 4.93332 3.99179 4.82837 4.13468C4.72342 4.27757 4.66677 4.45021 4.66666 4.6275V11.4351C4.39378 11.3688 4.11413 11.3346 3.83333 11.333C2.45312 11.333 1.33333 12.0793 1.33333 12.9996C1.33333 13.9199 2.45312 14.6663 3.83333 14.6663C5.21354 14.6663 6.33333 13.9199 6.33333 12.9996V6.91422L13 4.96109V9.76864C12.7272 9.70218 12.4475 9.66783 12.1667 9.6663C10.7865 9.6663 9.66666 10.4127 9.66666 11.333C9.66666 12.2533 10.7865 12.9996 12.1667 12.9996C13.5469 12.9996 14.6667 12.2535 14.6667 11.333V2.1663C14.6665 2.03548 14.6356 1.90652 14.5764 1.78987C14.5172 1.67321 14.4313 1.57214 14.3258 1.49483C14.2203 1.41752 14.098 1.36614 13.9689 1.34485C13.8399 1.32356 13.7076 1.33296 13.5828 1.37229Z" fill="url(#paint0_linear_25_542)"/>
</g>
<defs>
<filter id="filter0_d_25_542" x="0" y="-1" width="16" height="17" filterUnits="userSpaceOnUse" color-interpolation-filters="sRGB">
<feFlood flood-opacity="0" result="BackgroundImageFix"/>
<feColorMatrix in="SourceAlpha" type="matrix" values="0 0 0 0 0 0 0 0 0 0 0 0 0 0 0 0 0 0 127 0" result="hardAlpha"/>
<feOffset dy="-1"/>
<feComposite in2="hardAlpha" operator="out"/>
<feColorMatrix type="matrix" values="0 0 0 0 0 0 0 0 0 0 0 0 0 0 0 0 0 0 0.5 0"/>
<feBlend mode="normal" in2="BackgroundImageFix" result="effect1_dropShadow_25_542"/>
<feBlend mode="normal" in="SourceGraphic" in2="effect1_dropShadow_25_542" result="shape"/>
</filter>
<linearGradient id="paint0_linear_25_542" x1="3.99999" y1="1.39723" x2="6.86964" y2="14.2038" gradientUnits="userSpaceOnUse">
<stop stop-color="white" stop-opacity="0.85"/>
<stop offset="0.447917" stop-color="#CCCCCC" stop-opacity="0.75"/>
<stop offset="1" stop-color="#E6E6E6" stop-opacity="0.8"/>
</linearGradient>
</defs>
</svg>
