<svg width="16" height="16" viewBox="0 0 16 16" fill="none" xmlns="http://www.w3.org/2000/svg">
<path d="M14.5 0C15.3284 0 16 0.671562 16 1.5V10.5C16 11.3284 15.3284 12 14.5 12H5.5C4.67156 12 4 11.3284 4 10.5V1.5C4 0.671562 4.67156 0 5.5 0H14.5ZM5.5 13C4.1215 13 3 11.8785 3 10.5V4H1.5C0.671562 4 0 4.67156 0 5.5V14.5C0 15.3284 0.671562 16 1.5 16H10.5C11.3284 16 12 15.3284 12 14.5V13H5.5Z" fill="url(#paint0_linear_25_531)"/>
<defs>
<linearGradient id="paint0_linear_25_531" x1="3.2" y1="0.0761906" x2="6.64396" y2="15.4449" gradientUnits="userSpaceOnUse">
<stop stop-color="white" stop-opacity="0.85"/>
<stop offset="0.447917" stop-color="#CCCCCC" stop-opacity="0.75"/>
<stop offset="1" stop-color="#E6E6E6" stop-opacity="0.8"/>
</linearGradient>
</defs>
</svg>
