<svg width="16" height="16" viewBox="0 0 16 16" fill="none" xmlns="http://www.w3.org/2000/svg">
<g filter="url(#filter0_d_25_504)">
<path d="M2.16666 13.4167C2.16666 14.1068 2.72656 14.6667 3.41666 14.6667H12.5833C13.2734 14.6667 13.8333 14.1068 13.8333 13.4167V6.33337H2.16666V13.4167ZM10.5 8.31254C10.5 8.14067 10.6406 8.00004 10.8125 8.00004H11.8542C12.026 8.00004 12.1667 8.14067 12.1667 8.31254V9.35421C12.1667 9.52608 12.026 9.66671 11.8542 9.66671H10.8125C10.6406 9.66671 10.5 9.52608 10.5 9.35421V8.31254ZM10.5 11.6459C10.5 11.474 10.6406 11.3334 10.8125 11.3334H11.8542C12.026 11.3334 12.1667 11.474 12.1667 11.6459V12.6875C12.1667 12.8594 12.026 13 11.8542 13H10.8125C10.6406 13 10.5 12.8594 10.5 12.6875V11.6459ZM7.16666 8.31254C7.16666 8.14067 7.30729 8.00004 7.47916 8.00004H8.52083C8.69271 8.00004 8.83333 8.14067 8.83333 8.31254V9.35421C8.83333 9.52608 8.69271 9.66671 8.52083 9.66671H7.47916C7.30729 9.66671 7.16666 9.52608 7.16666 9.35421V8.31254ZM7.16666 11.6459C7.16666 11.474 7.30729 11.3334 7.47916 11.3334H8.52083C8.69271 11.3334 8.83333 11.474 8.83333 11.6459V12.6875C8.83333 12.8594 8.69271 13 8.52083 13H7.47916C7.30729 13 7.16666 12.8594 7.16666 12.6875V11.6459ZM3.83333 8.31254C3.83333 8.14067 3.97396 8.00004 4.14583 8.00004H5.1875C5.35937 8.00004 5.5 8.14067 5.5 8.31254V9.35421C5.5 9.52608 5.35937 9.66671 5.1875 9.66671H4.14583C3.97396 9.66671 3.83333 9.52608 3.83333 9.35421V8.31254ZM3.83333 11.6459C3.83333 11.474 3.97396 11.3334 4.14583 11.3334H5.1875C5.35937 11.3334 5.5 11.474 5.5 11.6459V12.6875C5.5 12.8594 5.35937 13 5.1875 13H4.14583C3.97396 13 3.83333 12.8594 3.83333 12.6875V11.6459ZM12.5833 3.00004H11.3333V1.75004C11.3333 1.52087 11.1458 1.33337 10.9167 1.33337H10.0833C9.85416 1.33337 9.66666 1.52087 9.66666 1.75004V3.00004H6.33333V1.75004C6.33333 1.52087 6.14583 1.33337 5.91666 1.33337H5.08333C4.85416 1.33337 4.66666 1.52087 4.66666 1.75004V3.00004H3.41666C2.72656 3.00004 2.16666 3.55994 2.16666 4.25004V5.50004H13.8333V4.25004C13.8333 3.55994 13.2734 3.00004 12.5833 3.00004Z" fill="url(#paint0_linear_25_504)"/>
</g>
<defs>
<filter id="filter0_d_25_504" x="0" y="-1" width="16" height="17" filterUnits="userSpaceOnUse" color-interpolation-filters="sRGB">
<feFlood flood-opacity="0" result="BackgroundImageFix"/>
<feColorMatrix in="SourceAlpha" type="matrix" values="0 0 0 0 0 0 0 0 0 0 0 0 0 0 0 0 0 0 127 0" result="hardAlpha"/>
<feOffset dy="-1"/>
<feComposite in2="hardAlpha" operator="out"/>
<feColorMatrix type="matrix" values="0 0 0 0 0 0 0 0 0 0 0 0 0 0 0 0 0 0 0.5 0"/>
<feBlend mode="normal" in2="BackgroundImageFix" result="effect1_dropShadow_25_504"/>
<feBlend mode="normal" in="SourceGraphic" in2="effect1_dropShadow_25_504" result="shape"/>
</filter>
<linearGradient id="paint0_linear_25_504" x1="4.5" y1="1.39687" x2="7.73264" y2="14.0193" gradientUnits="userSpaceOnUse">
<stop stop-color="white" stop-opacity="0.85"/>
<stop offset="0.447917" stop-color="#CCCCCC" stop-opacity="0.75"/>
<stop offset="1" stop-color="#E6E6E6" stop-opacity="0.8"/>
</linearGradient>
</defs>
</svg>
